<svg width="75" height="14" viewBox="0 0 75 14" fill="none" xmlns="http://www.w3.org/2000/svg">
<path d="M10.5342 9.99023H5.10449L7.01855 9.21875L6.97949 7.55859L4.32324 7.83203L4.29395 10.0586L6.55957 10.8301H0.739258C1.07129 10.6999 1.40983 10.5664 1.75488 10.4297C2.09993 10.293 2.43848 10.1693 2.77051 10.0586L2.61426 4.6582C2.28223 4.52799 1.95671 4.38477 1.6377 4.22852C1.31217 4.06576 0.986654 3.90951 0.661133 3.75977L6.08105 3.81836L4.3916 4.60938L4.34277 6.77734H6.9502L6.87207 3.86719L4.87988 2.97852L10.3486 3.03711L8.63965 3.82812L8.49316 9.21875L10.5342 9.99023ZM12.9463 3.0957C12.9463 3.23893 12.917 3.37565 12.8584 3.50586C12.8063 3.62956 12.7314 3.74023 12.6338 3.83789C12.5426 3.92904 12.432 4.00391 12.3018 4.0625C12.1781 4.11458 12.0446 4.14062 11.9014 4.14062C11.7581 4.14062 11.6247 4.11458 11.501 4.0625C11.3773 4.00391 11.2666 3.92904 11.1689 3.83789C11.0778 3.74023 11.0029 3.62956 10.9443 3.50586C10.8923 3.37565 10.8662 3.23893 10.8662 3.0957C10.8662 2.95247 10.8923 2.81901 10.9443 2.69531C11.0029 2.57161 11.0778 2.46419 11.1689 2.37305C11.2666 2.27539 11.3773 2.20052 11.501 2.14844C11.6247 2.08984 11.7581 2.06055 11.9014 2.06055C12.0446 2.06055 12.1781 2.08984 12.3018 2.14844C12.432 2.20052 12.5426 2.27539 12.6338 2.37305C12.7314 2.46419 12.8063 2.57161 12.8584 2.69531C12.917 2.81901 12.9463 2.95247 12.9463 3.0957ZM14.0889 10.0195L9.71387 9.94141L11.335 8.93555L11.1982 5.69336L9.33301 4.81445H12.917L12.5947 9.00391L14.0889 10.0195ZM21.2178 11.1816L17.8389 11.6504L17.8877 10.8008C17.6989 10.8464 17.5068 10.8789 17.3115 10.8984C17.1162 10.918 16.9209 10.9277 16.7256 10.9277C16.3415 10.9277 15.9541 10.8822 15.5635 10.791C15.1794 10.7064 14.8311 10.5664 14.5186 10.3711C14.2126 10.1758 13.9619 9.92188 13.7666 9.60938C13.5713 9.29688 13.4736 8.91602 13.4736 8.4668C13.4736 8.10221 13.5518 7.77669 13.708 7.49023C13.8643 7.19727 14.0693 6.94987 14.3232 6.74805C14.5771 6.53971 14.8636 6.38021 15.1826 6.26953C15.5081 6.15885 15.8402 6.10352 16.1787 6.10352C16.5107 6.10352 16.8428 6.13932 17.1748 6.21094C17.5133 6.27604 17.8291 6.37695 18.1221 6.51367L18.2979 3.14453L16.1396 2.11914L20.1631 2.40234L19.1084 10.6836L21.2178 11.1816ZM18.0635 7.42188C17.8747 7.29167 17.6403 7.19727 17.3604 7.13867C17.0804 7.08008 16.8265 7.05078 16.5986 7.05078C16.3643 7.05078 16.1462 7.08984 15.9443 7.16797C15.749 7.24609 15.5798 7.35677 15.4365 7.5C15.2998 7.64323 15.1924 7.81576 15.1143 8.01758C15.0361 8.21289 14.9971 8.42773 14.9971 8.66211C14.9971 8.91602 15.0589 9.13737 15.1826 9.32617C15.3063 9.50846 15.4658 9.66146 15.6611 9.78516C15.8564 9.90234 16.0713 9.98698 16.3057 10.0391C16.54 10.0977 16.7646 10.127 16.9795 10.127C17.305 10.127 17.6273 10.0618 17.9463 9.93164L18.0635 7.42188ZM25.8564 8.22266C25.8564 8.26823 25.8532 8.3138 25.8467 8.35938C25.8467 8.40495 25.8467 8.45052 25.8467 8.49609L21.8721 8.57422C21.9567 8.95833 22.1488 9.24154 22.4482 9.42383C22.7477 9.60612 23.0863 9.69727 23.4639 9.69727C23.6462 9.69727 23.8317 9.68424 24.0205 9.6582C24.2093 9.63216 24.3949 9.58984 24.5771 9.53125C24.7594 9.47266 24.932 9.39779 25.0947 9.30664C25.2575 9.20898 25.404 9.09505 25.5342 8.96484C25.4626 9.23828 25.3421 9.47917 25.1729 9.6875C25.0036 9.89583 24.8018 10.0684 24.5674 10.2051C24.3395 10.3418 24.0889 10.4427 23.8154 10.5078C23.5485 10.5794 23.2816 10.6152 23.0146 10.6152C22.6501 10.6152 22.3018 10.5501 21.9697 10.4199C21.6442 10.2897 21.3577 10.1107 21.1104 9.88281C20.8695 9.65495 20.6774 9.38151 20.5342 9.0625C20.391 8.74349 20.3193 8.39518 20.3193 8.01758C20.3193 7.62044 20.4007 7.25911 20.5635 6.93359C20.7262 6.60807 20.9411 6.33138 21.208 6.10352C21.4749 5.86914 21.7842 5.6901 22.1357 5.56641C22.4873 5.44271 22.8551 5.38086 23.2393 5.38086C23.6429 5.38086 24.0042 5.45573 24.3232 5.60547C24.6488 5.75521 24.9255 5.96029 25.1533 6.2207C25.3812 6.48112 25.5537 6.78385 25.6709 7.12891C25.7946 7.46745 25.8564 7.83203 25.8564 8.22266ZM24.3623 7.72461C24.3493 7.54883 24.3135 7.37956 24.2549 7.2168C24.1963 7.05404 24.1149 6.91081 24.0107 6.78711C23.9066 6.66341 23.7796 6.56576 23.6299 6.49414C23.4867 6.41602 23.3174 6.37695 23.1221 6.37695C22.9268 6.37695 22.7575 6.41276 22.6143 6.48438C22.471 6.55599 22.3506 6.65365 22.2529 6.77734C22.1553 6.89453 22.0739 7.03451 22.0088 7.19727C21.9502 7.35352 21.9046 7.51628 21.8721 7.68555L24.3623 7.72461ZM32.9072 7.63672C32.9072 8.08594 32.7933 8.4668 32.5654 8.7793C32.3441 9.08529 32.0576 9.33594 31.7061 9.53125C31.361 9.72005 30.9834 9.86003 30.5732 9.95117C30.1631 10.0358 29.7725 10.0781 29.4014 10.0781C29.0368 10.0781 28.6559 10.0326 28.2588 9.94141C27.8682 9.85026 27.5068 9.70703 27.1748 9.51172C26.8493 9.31641 26.5791 9.06576 26.3643 8.75977C26.1559 8.44727 26.0518 8.07292 26.0518 7.63672C26.0518 7.16146 26.1657 6.76758 26.3936 6.45508C26.6214 6.14258 26.9079 5.89518 27.2529 5.71289C27.6045 5.5306 27.9886 5.40365 28.4053 5.33203C28.8285 5.26042 29.2354 5.22461 29.626 5.22461C29.984 5.22461 30.3551 5.27018 30.7393 5.36133C31.1299 5.45247 31.4847 5.5957 31.8037 5.79102C32.1292 5.97982 32.3929 6.22721 32.5947 6.5332C32.8031 6.83919 32.9072 7.20703 32.9072 7.63672ZM31.2959 7.61719C31.2959 7.38281 31.2503 7.16797 31.1592 6.97266C31.0745 6.77734 30.9541 6.60807 30.7979 6.46484C30.6481 6.32161 30.4723 6.21094 30.2705 6.13281C30.0687 6.05469 29.8538 6.01562 29.626 6.01562C29.3916 6.01562 29.1572 6.05143 28.9229 6.12305C28.6885 6.18815 28.4769 6.28581 28.2881 6.41602C28.0993 6.54622 27.9463 6.71224 27.8291 6.91406C27.7119 7.10938 27.6533 7.33398 27.6533 7.58789C27.6533 7.8418 27.6924 8.07292 27.7705 8.28125C27.8551 8.48958 27.9723 8.66862 28.1221 8.81836C28.2783 8.9681 28.4606 9.08529 28.6689 9.16992C28.8773 9.24805 29.1084 9.28711 29.3623 9.28711C29.6357 9.28711 29.8896 9.25781 30.124 9.19922C30.3584 9.13411 30.5635 9.0332 30.7393 8.89648C30.915 8.75977 31.0518 8.58724 31.1494 8.37891C31.2471 8.16406 31.2959 7.91016 31.2959 7.61719ZM39.9482 9.9707L37.2725 10.4688L37.3018 9.58984C37.2301 9.68099 37.139 9.76237 37.0283 9.83398C36.9176 9.89909 36.7972 9.95443 36.667 10C36.5433 10.0391 36.4163 10.0684 36.2861 10.0879C36.1559 10.1074 36.0322 10.1172 35.915 10.1172C35.1012 10.1172 34.5153 9.92188 34.1572 9.53125C33.7992 9.14062 33.6201 8.55143 33.6201 7.76367C33.6201 7.45768 33.6234 7.1582 33.6299 6.86523C33.6364 6.57227 33.6429 6.27604 33.6494 5.97656C33.3955 5.82682 33.1383 5.68034 32.8779 5.53711C32.6175 5.39388 32.3604 5.2474 32.1064 5.09766L35.2705 5.07812C35.2249 5.54688 35.1696 6.04167 35.1045 6.5625C35.0459 7.07682 35.0166 7.5651 35.0166 8.02734C35.0166 8.4375 35.1077 8.73698 35.29 8.92578C35.4723 9.11458 35.7686 9.20898 36.1787 9.20898C36.387 9.20898 36.5954 9.15039 36.8037 9.0332C37.012 8.91602 37.1781 8.77604 37.3018 8.61328L37.4287 6.11328L35.6807 5.26367L39.04 5.23438L38.376 9.39453L39.9482 9.9707ZM44.4795 8.34961C44.4795 8.67513 44.4046 8.94206 44.2549 9.15039C44.1051 9.35872 43.9163 9.52474 43.6885 9.64844C43.4606 9.76562 43.2067 9.85026 42.9268 9.90234C42.6468 9.94792 42.3766 9.9707 42.1162 9.9707C41.9665 9.9707 41.8005 9.96094 41.6182 9.94141C41.4424 9.91536 41.2666 9.87956 41.0908 9.83398C40.915 9.78841 40.7425 9.73307 40.5732 9.66797C40.4105 9.60286 40.264 9.52474 40.1338 9.43359L39.3428 10.3613L39.6455 7.37305C39.7562 7.61393 39.8962 7.8418 40.0654 8.05664C40.2412 8.27148 40.4398 8.46029 40.6611 8.62305C40.8825 8.78581 41.1201 8.91602 41.374 9.01367C41.6279 9.10482 41.8916 9.15039 42.165 9.15039C42.2367 9.15039 42.318 9.14714 42.4092 9.14062C42.5068 9.1276 42.598 9.10482 42.6826 9.07227C42.7738 9.03971 42.8486 8.99414 42.9072 8.93555C42.9658 8.87695 42.9951 8.79883 42.9951 8.70117C42.9951 8.59049 42.9365 8.48958 42.8193 8.39844C42.7021 8.30078 42.5654 8.2194 42.4092 8.1543C42.2529 8.08268 42.0967 8.02409 41.9404 7.97852C41.7842 7.92643 41.667 7.88737 41.5889 7.86133C41.3675 7.79622 41.1234 7.70833 40.8564 7.59766C40.596 7.48047 40.3519 7.34375 40.124 7.1875C39.9027 7.02474 39.7171 6.83594 39.5674 6.62109C39.4176 6.39974 39.3428 6.14583 39.3428 5.85938C39.3428 5.58594 39.4079 5.3418 39.5381 5.12695C39.6748 4.91211 39.8473 4.73307 40.0557 4.58984C40.264 4.4401 40.4951 4.32943 40.749 4.25781C41.0094 4.17969 41.2633 4.14062 41.5107 4.14062C41.9014 4.14062 42.2692 4.21224 42.6143 4.35547C42.9658 4.49219 43.2848 4.69076 43.5713 4.95117L44.1768 3.7793L44.0498 6.86523C43.9326 6.64388 43.7861 6.42253 43.6104 6.20117C43.4346 5.97331 43.2393 5.76823 43.0244 5.58594C42.8096 5.40365 42.5785 5.25716 42.3311 5.14648C42.0837 5.03581 41.8265 4.98047 41.5596 4.98047C41.4814 4.98047 41.3903 4.99023 41.2861 5.00977C41.1885 5.02279 41.0941 5.04883 41.0029 5.08789C40.9183 5.12695 40.8434 5.18229 40.7783 5.25391C40.7197 5.31901 40.6904 5.40365 40.6904 5.50781C40.6904 5.63151 40.736 5.73893 40.8271 5.83008C40.9248 5.92122 41.0387 6.0026 41.1689 6.07422C41.3057 6.13932 41.4424 6.19792 41.5791 6.25C41.7223 6.29557 41.8395 6.33138 41.9307 6.35742C42.165 6.43555 42.4287 6.52669 42.7217 6.63086C43.0146 6.73503 43.2913 6.86198 43.5518 7.01172C43.8122 7.16146 44.0303 7.34701 44.2061 7.56836C44.3883 7.7832 44.4795 8.04362 44.4795 8.34961Z" fill="black"/>
<path d="M56.8623 6.64062L55.0361 7.44141L55.3096 10.4004L54.2354 9.43359C54.0791 9.6224 53.8936 9.77865 53.6787 9.90234C53.4704 10.026 53.2458 10.1237 53.0049 10.1953C52.7705 10.2669 52.5296 10.319 52.2822 10.3516C52.0348 10.3841 51.7939 10.4004 51.5596 10.4004C51.0127 10.4004 50.5114 10.3092 50.0557 10.127C49.6064 9.94466 49.2191 9.69076 48.8936 9.36523C48.5745 9.0332 48.3239 8.63932 48.1416 8.18359C47.9658 7.72786 47.8779 7.22982 47.8779 6.68945C47.8844 6.07747 47.9984 5.54688 48.2197 5.09766C48.4411 4.64844 48.7373 4.27409 49.1084 3.97461C49.4795 3.67513 49.9124 3.45378 50.4072 3.31055C50.9085 3.16081 51.4424 3.08594 52.0088 3.08594C52.3148 3.08594 52.6338 3.13477 52.9658 3.23242C53.2979 3.32357 53.5908 3.44727 53.8447 3.60352L55.1143 2.37305L54.7725 6.51367L54.3623 5.74219C54.2516 5.53385 54.1182 5.33529 53.9619 5.14648C53.8057 4.95117 53.6299 4.7819 53.4346 4.63867C53.2458 4.48893 53.0407 4.37174 52.8193 4.28711C52.598 4.20247 52.3669 4.16016 52.126 4.16016C51.7354 4.16016 51.3968 4.23177 51.1104 4.375C50.8239 4.51172 50.583 4.70052 50.3877 4.94141C50.1989 5.18229 50.0557 5.46224 49.958 5.78125C49.8669 6.09375 49.8213 6.42904 49.8213 6.78711C49.8213 7.11263 49.8669 7.4349 49.958 7.75391C50.0557 8.07292 50.1956 8.35938 50.3779 8.61328C50.5602 8.86068 50.7881 9.0625 51.0615 9.21875C51.335 9.375 51.654 9.45312 52.0186 9.45312C52.4873 9.45312 52.8584 9.33594 53.1318 9.10156C53.4053 8.86719 53.542 8.51237 53.542 8.03711C53.542 7.95247 53.5387 7.86784 53.5322 7.7832C53.5257 7.69857 53.516 7.61719 53.5029 7.53906L51.1104 6.62109L56.8623 6.64062ZM59.2744 3.0957C59.2744 3.23893 59.2451 3.37565 59.1865 3.50586C59.1344 3.62956 59.0596 3.74023 58.9619 3.83789C58.8708 3.92904 58.7601 4.00391 58.6299 4.0625C58.5062 4.11458 58.3727 4.14062 58.2295 4.14062C58.0863 4.14062 57.9528 4.11458 57.8291 4.0625C57.7054 4.00391 57.5947 3.92904 57.4971 3.83789C57.4059 3.74023 57.3311 3.62956 57.2725 3.50586C57.2204 3.37565 57.1943 3.23893 57.1943 3.0957C57.1943 2.95247 57.2204 2.81901 57.2725 2.69531C57.3311 2.57161 57.4059 2.46419 57.4971 2.37305C57.5947 2.27539 57.7054 2.20052 57.8291 2.14844C57.9528 2.08984 58.0863 2.06055 58.2295 2.06055C58.3727 2.06055 58.5062 2.08984 58.6299 2.14844C58.7601 2.20052 58.8708 2.27539 58.9619 2.37305C59.0596 2.46419 59.1344 2.57161 59.1865 2.69531C59.2451 2.81901 59.2744 2.95247 59.2744 3.0957ZM60.417 10.0195L56.042 9.94141L57.6631 8.93555L57.5264 5.69336L55.6611 4.81445H59.2451L58.9229 9.00391L60.417 10.0195ZM65.3877 2.32422C65.3877 2.53255 65.3161 2.70833 65.1729 2.85156C65.0296 2.98828 64.8538 3.05664 64.6455 3.05664C64.4372 3.05664 64.2516 2.98828 64.0889 2.85156C63.9326 2.71484 63.8545 2.53581 63.8545 2.31445C63.8545 2.0931 63.9424 1.91081 64.1182 1.76758C64.0726 1.61784 63.9945 1.49414 63.8838 1.39648C63.7731 1.29232 63.6364 1.24023 63.4736 1.24023C63.2653 1.24023 63.0993 1.31185 62.9756 1.45508C62.8584 1.5918 62.7705 1.76107 62.7119 1.96289C62.6533 2.1582 62.6175 2.36328 62.6045 2.57812C62.5915 2.79297 62.585 2.97201 62.585 3.11523C62.585 3.42773 62.598 3.74023 62.624 4.05273C62.6501 4.35872 62.6794 4.66797 62.7119 4.98047H64.626V5.86914H62.8584L63.376 10.3418C63.389 10.4915 63.402 10.6413 63.415 10.791C63.4346 10.9473 63.4443 11.1003 63.4443 11.25C63.4443 11.5885 63.3988 11.9206 63.3076 12.2461C63.2165 12.5781 63.0765 12.8711 62.8877 13.125C62.7054 13.3854 62.471 13.5938 62.1846 13.75C61.9046 13.9128 61.5758 13.9941 61.1982 13.9941C60.9378 13.9941 60.6872 13.9453 60.4463 13.8477C60.2119 13.7565 60.0003 13.6263 59.8115 13.457C59.6292 13.2878 59.4827 13.0859 59.3721 12.8516C59.2614 12.6237 59.2061 12.3763 59.2061 12.1094C59.2061 11.8945 59.2777 11.7188 59.4209 11.582C59.5641 11.4453 59.7399 11.377 59.9482 11.377C60.0459 11.377 60.1403 11.3932 60.2314 11.4258C60.3291 11.4648 60.4137 11.5169 60.4854 11.582C60.5635 11.6471 60.6221 11.722 60.6611 11.8066C60.7067 11.8978 60.7295 11.9954 60.7295 12.0996C60.7295 12.3079 60.6514 12.4902 60.4951 12.6465C60.5407 12.7897 60.6188 12.9102 60.7295 13.0078C60.8402 13.112 60.9704 13.1641 61.1201 13.1641C61.2959 13.1641 61.4391 13.1087 61.5498 12.998C61.667 12.8939 61.7581 12.7637 61.8232 12.6074C61.8883 12.4577 61.9307 12.2949 61.9502 12.1191C61.9762 11.9499 61.9893 11.8001 61.9893 11.6699C61.9893 11.4225 61.973 11.1751 61.9404 10.9277C61.9144 10.6803 61.8818 10.4329 61.8428 10.1855L61.833 10.1758L61.3057 5.86914H59.8506V4.98047H61.208C61.1755 4.73307 61.1494 4.48893 61.1299 4.24805C61.1169 4.00716 61.1104 3.76302 61.1104 3.51562C61.1104 3.15104 61.1462 2.7832 61.2178 2.41211C61.2894 2.04102 61.4131 1.70898 61.5889 1.41602C61.7646 1.11654 61.9958 0.872396 62.2822 0.683594C62.5752 0.494792 62.9398 0.400391 63.376 0.400391C63.6429 0.400391 63.8968 0.449219 64.1377 0.546875C64.3786 0.644531 64.5902 0.78125 64.7725 0.957031C64.9613 1.1263 65.111 1.32812 65.2217 1.5625C65.3324 1.79688 65.3877 2.05078 65.3877 2.32422ZM69.2646 3.69141L69.1768 4.60938C68.8577 4.58333 68.542 4.56055 68.2295 4.54102C67.917 4.51497 67.6012 4.48568 67.2822 4.45312C67.2301 5.07161 67.1748 5.68685 67.1162 6.29883C67.0576 6.91081 66.999 7.52604 66.9404 8.14453C66.9404 8.17708 66.9372 8.20964 66.9307 8.24219C66.9242 8.27474 66.9209 8.30729 66.9209 8.33984C66.9209 8.43099 66.9307 8.52539 66.9502 8.62305C66.9697 8.71419 67.0023 8.79883 67.0479 8.87695C67.0934 8.94857 67.152 9.01042 67.2236 9.0625C67.3018 9.10807 67.3962 9.13086 67.5068 9.13086C67.7217 9.13086 67.9105 9.08203 68.0732 8.98438C68.236 8.88021 68.3727 8.75 68.4834 8.59375C68.5941 8.4375 68.682 8.26497 68.7471 8.07617C68.8122 7.88086 68.8545 7.6888 68.874 7.5C68.9521 7.80599 68.9912 8.10872 68.9912 8.4082C68.9912 8.69466 68.9456 8.95508 68.8545 9.18945C68.7633 9.41732 68.6364 9.61589 68.4736 9.78516C68.3109 9.94792 68.1156 10.0749 67.8877 10.166C67.6598 10.2572 67.4092 10.3027 67.1357 10.3027C66.8493 10.3027 66.5986 10.2539 66.3838 10.1562C66.1689 10.0586 65.9899 9.92513 65.8467 9.75586C65.71 9.58008 65.6058 9.375 65.5342 9.14062C65.4691 8.90625 65.4365 8.6556 65.4365 8.38867C65.4365 8.33659 65.4365 8.28776 65.4365 8.24219C65.4365 8.19661 65.4398 8.14779 65.4463 8.0957C65.4984 7.46419 65.5472 6.84245 65.5928 6.23047C65.6449 5.61198 65.6904 4.98698 65.7295 4.35547C65.5537 4.34245 65.3779 4.32943 65.2021 4.31641C65.0329 4.29688 64.8604 4.27734 64.6846 4.25781L64.7236 3.48633C64.8604 3.47982 65.0036 3.45703 65.1533 3.41797C65.3031 3.37891 65.4463 3.32682 65.583 3.26172C65.7262 3.19661 65.8564 3.11849 65.9736 3.02734C66.0973 2.9362 66.1982 2.83203 66.2764 2.71484C66.348 2.59766 66.4131 2.4707 66.4717 2.33398C66.5368 2.19727 66.5921 2.05404 66.6377 1.9043C66.6898 1.75456 66.7321 1.60807 66.7646 1.46484C66.7972 1.3151 66.82 1.17188 66.833 1.03516L67.6338 1.05469L67.3799 3.49609L69.2646 3.69141ZM74.3428 8.34961C74.3428 8.67513 74.2679 8.94206 74.1182 9.15039C73.9684 9.35872 73.7796 9.52474 73.5518 9.64844C73.3239 9.76562 73.07 9.85026 72.79 9.90234C72.5101 9.94792 72.2399 9.9707 71.9795 9.9707C71.8298 9.9707 71.6637 9.96094 71.4814 9.94141C71.3057 9.91536 71.1299 9.87956 70.9541 9.83398C70.7783 9.78841 70.6058 9.73307 70.4365 9.66797C70.2738 9.60286 70.1273 9.52474 69.9971 9.43359L69.2061 10.3613L69.5088 7.37305C69.6195 7.61393 69.7594 7.8418 69.9287 8.05664C70.1045 8.27148 70.3031 8.46029 70.5244 8.62305C70.7458 8.78581 70.9834 8.91602 71.2373 9.01367C71.4912 9.10482 71.7549 9.15039 72.0283 9.15039C72.0999 9.15039 72.1813 9.14714 72.2725 9.14062C72.3701 9.1276 72.4613 9.10482 72.5459 9.07227C72.637 9.03971 72.7119 8.99414 72.7705 8.93555C72.8291 8.87695 72.8584 8.79883 72.8584 8.70117C72.8584 8.59049 72.7998 8.48958 72.6826 8.39844C72.5654 8.30078 72.4287 8.2194 72.2725 8.1543C72.1162 8.08268 71.96 8.02409 71.8037 7.97852C71.6475 7.92643 71.5303 7.88737 71.4521 7.86133C71.2308 7.79622 70.9867 7.70833 70.7197 7.59766C70.4593 7.48047 70.2152 7.34375 69.9873 7.1875C69.766 7.02474 69.5804 6.83594 69.4307 6.62109C69.2809 6.39974 69.2061 6.14583 69.2061 5.85938C69.2061 5.58594 69.2712 5.3418 69.4014 5.12695C69.5381 4.91211 69.7106 4.73307 69.9189 4.58984C70.1273 4.4401 70.3584 4.32943 70.6123 4.25781C70.8727 4.17969 71.1266 4.14062 71.374 4.14062C71.7646 4.14062 72.1325 4.21224 72.4775 4.35547C72.8291 4.49219 73.1481 4.69076 73.4346 4.95117L74.04 3.7793L73.9131 6.86523C73.7959 6.64388 73.6494 6.42253 73.4736 6.20117C73.2979 5.97331 73.1025 5.76823 72.8877 5.58594C72.6729 5.40365 72.4417 5.25716 72.1943 5.14648C71.9469 5.03581 71.6898 4.98047 71.4229 4.98047C71.3447 4.98047 71.2536 4.99023 71.1494 5.00977C71.0518 5.02279 70.9574 5.04883 70.8662 5.08789C70.7816 5.12695 70.7067 5.18229 70.6416 5.25391C70.583 5.31901 70.5537 5.40365 70.5537 5.50781C70.5537 5.63151 70.5993 5.73893 70.6904 5.83008C70.7881 5.92122 70.902 6.0026 71.0322 6.07422C71.1689 6.13932 71.3057 6.19792 71.4424 6.25C71.5856 6.29557 71.7028 6.33138 71.7939 6.35742C72.0283 6.43555 72.292 6.52669 72.585 6.63086C72.8779 6.73503 73.1546 6.86198 73.415 7.01172C73.6755 7.16146 73.8936 7.34701 74.0693 7.56836C74.2516 7.7832 74.3428 8.04362 74.3428 8.34961Z" fill="#BBFFB0"/>
</svg>
